<svg t="1735039900590" class="icon" viewBox="0 0 1024 1024" version="1.1" xmlns="http://www.w3.org/2000/svg" p-id="9114" width="48" height="48"><path d="M505.271207 788.247551c-3.303226-1.345759-12.845878-8.196894-15.782079-11.377778-9.787336-10.399044-17.127838-25.691756-19.574672-40.984468-1.590442-9.787336 0.122342-22.38853 4.648985-32.787575 3.425568-7.95221 11.377778-19.45233 17.617204-25.324731 13.090562-12.601195 22.510872-14.069295 34.378017-5.138351 12.601195 9.542652 22.633214 26.67049 26.058781 44.77706 1.957467 9.787336 1.957467 11.255436 0 21.042772-4.893668 25.569415-23.489606 49.05902-39.638709 50.160096-3.180884 0.244683-6.728793 0.122342-7.707527-0.367025z" fill="#6A4825" p-id="9115"></path><path d="M486.797611 996.473118c-0.367025-0.244683-6.117085-1.101075-12.723537-1.712783-64.718757-6.728793-135.676941-36.213142-187.794504-78.298686-21.65448-17.372521-40.739785-36.947192-62.76129-63.984708-10.399044-12.723536-26.181123-38.170609-36.090801-57.867622-13.824612-27.771565-20.064038-43.920669-26.425806-68.389008-8.563919-32.42055-14.191637-71.447551-14.191637-97.383991 0-22.266189 5.505376-63.984707 11.622461-88.208363 17.127838-67.287933 51.261171-126.990681 99.830824-174.214576 31.074791-30.218399 62.02724-51.995221 98.485066-69.2454 40.495102-19.329988 77.319952-29.484349 128.33644-35.479092 13.212903-1.4681 54.931422-0.856392 72.181601 1.223417 42.819594 5.01601 83.926404 17.250179 121.485304 36.0908 55.54313 27.771565 96.527599 61.904898 132.496058 110.229869 8.563919 11.500119 11.744803 16.271446 18.595938 27.282198 1.590442 2.446834 4.281959 6.728793 5.994743 9.542653 7.707527 12.111828 21.165114 41.84086 28.260932 62.271923 11.500119 33.1546 19.085305 73.160335 19.574671 103.011709 0.244683 14.069295 0 16.393787-1.957467 18.351254-1.957467 2.079809-5.627718 2.202151-50.404779 2.202151-44.532378 0-48.447312-0.122342-50.404779-2.202151-1.712784-1.712784-2.324492-5.138351-2.936201-17.739546-0.489367-8.563919-1.101075-17.127838-1.4681-19.207646-0.489367-1.957467-1.345759-7.462843-2.202151-12.23417-3.058542-18.840621-13.824612-51.872879-22.143847-68.51135-19.207646-38.048268-51.261171-75.240143-85.272162-98.729749-32.665233-22.633214-73.282676-39.149343-107.783035-43.798327-5.75006-0.73405-14.069295-1.835125-18.595938-2.569176-10.521386-1.4681-37.925926-1.4681-48.447312 0-4.526643 0.73405-12.845878 1.835125-18.595937 2.569176-57.011231 7.829869-119.038471 42.57491-157.453764 88.330704-26.915173 32.175866-46.12282 69.734767-55.420788 108.639427-5.138351 21.409797-6.48411 34.867384-6.361769 63.617682 0 28.016249 1.590442 42.085544 7.095819 64.229391 11.500119 45.878136 38.292951 91.878614 72.548626 124.421505 38.659976 36.702509 87.841338 61.660215 136.533333 69.2454 21.776822 3.425568 27.40454 3.914934 44.777061 3.914935 49.670729 0 93.346714-11.989486 136.900359-37.681243 28.383274-16.760812 60.069773-46.12282 77.93166-72.059259 8.441577-12.356511 9.787336-14.313978 16.638471-26.67049 8.441577-15.17037 17.127838-35.601434 20.308722-47.957945 0.73405-2.691517 2.446834-6.361768 3.67025-7.95221l2.324493-2.813859 48.814337-0.367025c55.420789-0.244683 55.053763-0.367025 54.442055 7.829868-0.73405 10.032019-11.744803 47.101553-18.840622 63.495341-17.617204 40.495102-33.399283 66.431541-60.803823 99.708482-12.723536 15.415054-40.250418 41.596177-58.234647 55.176106-47.223895 35.846117-109.128793 62.02724-165.772999 70.101792-7.707527 1.101075-17.739546 2.569176-22.388531 3.180884-8.196894 1.223417-62.271924 1.712784-63.372998 0.611708zM448.627001 234.651374c-14.558662-22.021505-31.441816-34.255675-53.218638-38.292951-16.883154-3.180884-30.463082-0.367025-56.644205 11.744803-28.87264 13.335245-50.037754 16.271446-74.628435 10.154361-29.117324-7.095818-51.016487-23.244922-65.819833-48.324971-5.872401-9.909677-12.356511-34.378017-12.356511-46.122819 0.122342-21.042772 9.787336-49.303704 22.633214-66.3092 10.888411-14.191637 35.35675-28.87264 58.724014-35.112067 11.133094-3.058542 14.191637-3.303226 34.867383-3.425567 20.92043 0 23.611947 0.244683 34.867384 3.303226 21.532139 5.872401 33.766308 11.500119 51.138829 23.244922 11.622461 8.074552 31.197133 27.771565 38.659976 38.90466 24.590681 37.069534 38.292951 87.596655 37.925926 140.203584-0.122342 19.574671-0.73405 23.000239-4.404301 23.489606-2.079809 0.367025-4.281959-2.202151-11.744803-13.457587z m-186.693429-108.272401c9.542652-3.058542 19.819355-13.335245 22.388531-22.266189 3.792593-13.090562 1.345759-24.590681-7.462844-34.378017-7.462843-8.319235-15.17037-11.377778-27.159856-10.766069-15.415054 0.73405-24.590681 7.095818-30.830108 21.165113-2.079809 4.648984-2.446834 7.585185-2.079809 14.558662 0.489367 10.766069 4.404301 18.840621 11.744803 25.080048 9.787336 8.319235 21.165114 10.521386 33.399283 6.606452zM515.058542 214.220311c-1.835125-3.547909-1.4681-24.713023 0.611709-38.782318 1.957467-13.457587 5.75006-27.526882 11.377778-43.553644 4.648984-13.090562 6.361768-16.516129 13.335245-27.037515 12.96822-19.329988 29.973716-31.808841 51.26117-37.681243 13.70227-3.792593 36.0908-2.936201 50.037754 1.835126 20.92043 7.095818 40.495102 21.899164 47.713262 36.213142 4.037276 7.95221 7.95221 21.899164 7.95221 28.627957 0 5.994743-3.180884 18.106571-6.361768 24.468339-1.4681 2.813859-6.239427 8.68626-10.643728 13.090562-9.542652 9.542652-23.367264 16.883154-39.027001 20.798088-10.521386 2.569176-22.633214 2.691517-60.803823 0.367025-20.675747-1.223417-37.191876 4.159618-52.606929 17.25018-8.441577 7.21816-10.888411 8.074552-12.845879 4.404301z" fill="#FE6601" p-id="9116"></path><path d="M303.652091 626.389486c-5.75006-2.446834-6.606452-12.723536-2.691518-35.234408 8.074552-46.245161 26.792832-83.559379 58.112306-116.346954 35.234409-36.824851 75.607168-57.133572 131.639666-66.064516 10.643728-1.712784 40.862127-1.712784 51.138829 0 55.053763 9.297969 94.325448 28.750299 129.07049 63.984707 35.601434 36.213142 54.80908 76.708244 62.02724 130.660932 1.835125 14.191637 0.856392 20.308722-3.792593 22.633214-2.446834 1.223417-46.489845 1.590442-212.874552 1.468101-122.953405 0-210.917085-0.489367-212.629868-1.101076zM239.178017 132.985424c-7.829869-2.569176-11.867145-5.138351-17.250179-10.888411-20.553405-21.287455-14.191637-54.442055 12.845878-66.798566 10.154361-4.648984 23.856631-4.526643 33.766308 0.244683 12.478853 6.117085 19.574671 15.292712 23.367264 29.973716 1.590442 6.606452 1.590442 8.074552-0.122342 15.659737-3.425568 14.558662-10.521386 23.489606-23.734289 29.484349-8.074552 3.670251-21.409797 4.771326-28.87264 2.324492zM606.44779 126.745998c-8.074552-2.202151-11.867145-5.260693-15.904421-13.090562-3.058542-5.75006-3.425568-7.585185-2.936201-14.313978 0.73405-9.175627 4.526643-15.659737 11.989487-20.675747 4.404301-2.813859 6.361768-3.303226 13.824611-3.303226 6.973477 0 9.664994 0.489367 13.212904 2.691517 10.276703 6.361768 15.782079 18.351254 13.090561 28.872641-3.914934 15.415054-18.228913 23.978973-33.276941 19.819355z" fill="#FE9901" p-id="9117"></path></svg>